<?xml version="1.0" standalone="no"?>
<!DOCTYPE svg PUBLIC "-//W3C//DTD SVG 20010904//EN"
 "http://www.w3.org/TR/2001/REC-SVG-20010904/DTD/svg10.dtd">
<svg version="1.0" xmlns="http://www.w3.org/2000/svg"
 width="360.000000pt" height="360.000000pt" viewBox="0 0 360.000000 360.000000"
 preserveAspectRatio="xMidYMid meet">
<metadata>
Created by potrace 1.15, written by Peter Selinger 2001-2017
</metadata>
<g transform="translate(0.000000,360.000000) scale(0.100000,-0.100000)"
fill="#000000" stroke="none">
<path d="M1670 1380 c-17 -5 -19 -8 -7 -9 15 -1 17 -13 19 -93 3 -181 3 -185
-19 -191 -10 -3 34 -5 97 -5 63 0 107 2 98 5 -16 4 -18 17 -18 98 l0 95 -32
-7 c-38 -7 -49 -13 -24 -13 15 0 16 -10 14 -82 l-3 -83 -29 -3 c-16 -2 -32 2
-37 10 -5 7 -9 75 -9 151 0 146 1 143 -50 127z"/>
<path d="M1180 1370 c12 -7 15 -34 15 -137 0 -125 -1 -128 -22 -131 -13 -2
-23 -8 -23 -14 0 -5 7 -7 16 -4 9 3 43 7 77 7 34 1 53 4 42 6 -11 3 -23 10
-27 17 -4 6 -8 64 -8 128 0 101 2 118 18 127 13 8 3 10 -43 11 -42 0 -55 -3
-45 -10z"/>
<path d="M1503 1270 c-36 -15 -65 -69 -58 -110 13 -76 109 -109 160 -54 48 52
41 119 -17 154 -36 22 -51 23 -85 10z m64 -15 c28 -20 39 -76 24 -126 -11 -35
-15 -39 -46 -39 -45 0 -59 26 -53 96 7 78 31 100 75 69z"/>
</g>
</svg>
